<svg width="208" height="39" viewBox="0 0 208 39" fill="none" xmlns="http://www.w3.org/2000/svg">
<path d="M31.2749 7.84259C27.4022 7.84259 21.9311 8.16662 19.1352 10.961C17.9247 12.1716 17.3202 14.1449 17.4771 16.3785C17.4975 16.6735 17.6937 16.9248 17.9756 17.0179C18.256 17.1094 18.5641 17.0237 18.7559 16.7985C20.3108 14.9689 22.2435 13.5027 24.5046 12.4404C24.6964 12.3489 24.9231 12.3416 25.1295 12.4143C25.3111 12.4796 25.4535 12.6031 25.5276 12.7616C25.6816 13.0871 25.6322 13.5158 25.1207 13.757C25.0917 13.7715 25.0655 13.7904 25.0365 13.8035C25.0263 13.8079 25.0147 13.8064 25.006 13.8108C19.4346 16.4294 16.6954 20.9981 15.4514 25.6962C14.5446 19.8138 12.6294 16.3509 10.8202 14.2249C9.51095 12.5277 8.22341 11.6281 7.47943 11.1196C7.34136 11.0251 6.92435 10.7403 6.7514 10.5673C6.46803 10.284 6.46803 9.82329 6.7514 9.53993C7.03477 9.25799 7.49687 9.25799 7.81218 9.57187C7.88923 9.64019 8.01272 9.72738 8.16966 9.83201L8.29902 9.9192C9.35108 10.6399 11.31 11.9783 13.0479 14.8599C13.2034 15.1171 13.5042 15.2552 13.7963 15.2C14.0928 15.1476 14.3252 14.9195 14.3834 14.6245C14.7627 12.6875 14.5927 9.81308 12.8649 8.08529C10.069 5.29229 4.59789 4.96826 0.726671 4.96826C0.32553 4.96819 0 5.29372 0 5.6948C0 9.56745 0.324032 15.0386 3.11846 17.8345C4.28387 18.9999 6.08147 19.5231 7.86736 19.5231C9.32486 19.5231 10.7533 19.1583 11.8476 18.5262C13.3399 21.6185 14.5316 26.2381 14.5316 33.3048C14.5316 33.7059 14.8571 34.0314 15.2582 34.0314C15.6592 34.0314 15.9848 33.7059 15.9848 33.3048C15.9848 29.3624 16.6605 24.6309 19.173 20.7364C20.18 21.7202 21.9137 22.3437 23.8347 22.4018C23.9306 22.4047 24.0251 22.4061 24.1195 22.4061C26.0711 22.4061 27.796 21.7944 28.8815 20.7073C31.6773 17.9115 31.9999 12.4403 31.9999 8.56763C32.0015 8.16662 31.6774 7.84259 31.2749 7.84259Z" fill="#00B307"/>
<path d="M49.728 30.724C48.2347 30.724 46.8907 30.468 45.696 29.956C44.5013 29.4227 43.5627 28.676 42.88 27.716C42.1973 26.756 41.856 25.636 41.856 24.356H45.76C45.8453 25.316 46.2187 26.1053 46.88 26.724C47.5627 27.3427 48.512 27.652 49.728 27.652C50.9867 27.652 51.968 27.3533 52.672 26.756C53.376 26.1373 53.728 25.348 53.728 24.388C53.728 23.6413 53.504 23.0333 53.056 22.564C52.6293 22.0947 52.0853 21.732 51.424 21.476C50.784 21.22 49.888 20.9427 48.736 20.644C47.2853 20.26 46.1013 19.876 45.184 19.492C44.288 19.0867 43.52 18.468 42.88 17.636C42.24 16.804 41.92 15.6947 41.92 14.308C41.92 13.028 42.24 11.908 42.88 10.948C43.52 9.988 44.416 9.252 45.568 8.74C46.72 8.228 48.0533 7.972 49.568 7.972C51.7227 7.972 53.4827 8.516 54.848 9.604C56.2347 10.6707 57.0027 12.1427 57.152 14.02H53.12C53.056 13.2093 52.672 12.516 51.968 11.94C51.264 11.364 50.336 11.076 49.184 11.076C48.1387 11.076 47.2853 11.3427 46.624 11.876C45.9627 12.4093 45.632 13.1773 45.632 14.18C45.632 14.8627 45.8347 15.428 46.24 15.876C46.6667 16.3027 47.2 16.644 47.84 16.9C48.48 17.156 49.3547 17.4333 50.464 17.732C51.936 18.1373 53.1307 18.5427 54.048 18.948C54.9867 19.3533 55.776 19.9827 56.416 20.836C57.0773 21.668 57.408 22.788 57.408 24.196C57.408 25.3267 57.0987 26.3933 56.48 27.396C55.8827 28.3987 54.9973 29.2093 53.824 29.828C52.672 30.4253 51.3067 30.724 49.728 30.724ZM76.7205 12.868V30.5H73.0725V28.42C72.4965 29.1453 71.7392 29.7213 70.8005 30.148C69.8832 30.5533 68.9018 30.756 67.8565 30.756C66.4698 30.756 65.2218 30.468 64.1125 29.892C63.0245 29.316 62.1605 28.4627 61.5205 27.332C60.9018 26.2013 60.5925 24.836 60.5925 23.236V12.868H64.2085V22.692C64.2085 24.2707 64.6032 25.4867 65.3925 26.34C66.1818 27.172 67.2592 27.588 68.6245 27.588C69.9898 27.588 71.0672 27.172 71.8565 26.34C72.6672 25.4867 73.0725 24.2707 73.0725 22.692V12.868H76.7205ZM89.4698 12.58C90.8564 12.58 92.0938 12.868 93.1818 13.444C94.2911 14.02 95.1551 14.8733 95.7738 16.004C96.3924 17.1347 96.7018 18.5 96.7018 20.1V30.5H93.0858V20.644C93.0858 19.0653 92.6911 17.86 91.9018 17.028C91.1124 16.1747 90.0351 15.748 88.6698 15.748C87.3044 15.748 86.2164 16.1747 85.4058 17.028C84.6164 17.86 84.2218 19.0653 84.2218 20.644V30.5H80.5738V12.868H84.2218V14.884C84.8191 14.1587 85.5764 13.5933 86.4938 13.188C87.4324 12.7827 88.4244 12.58 89.4698 12.58ZM116.363 12.868V30.5H112.715V28.42C112.139 29.1453 111.382 29.7213 110.443 30.148C109.526 30.5533 108.544 30.756 107.499 30.756C106.112 30.756 104.864 30.468 103.755 29.892C102.667 29.316 101.803 28.4627 101.163 27.332C100.544 26.2013 100.235 24.836 100.235 23.236V12.868H103.851V22.692C103.851 24.2707 104.246 25.4867 105.035 26.34C105.824 27.172 106.902 27.588 108.267 27.588C109.632 27.588 110.71 27.172 111.499 26.34C112.31 25.4867 112.715 24.2707 112.715 22.692V12.868H116.363ZM123.864 15.492C124.483 14.6387 125.326 13.9453 126.392 13.412C127.48 12.8573 128.686 12.58 130.008 12.58C131.566 12.58 132.974 12.9533 134.232 13.7C135.491 14.4467 136.483 15.5133 137.208 16.9C137.934 18.2653 138.296 19.8333 138.296 21.604C138.296 23.3747 137.934 24.964 137.208 26.372C136.483 27.7587 135.48 28.8467 134.2 29.636C132.942 30.404 131.544 30.788 130.008 30.788C128.643 30.788 127.427 30.5213 126.36 29.988C125.315 29.4547 124.483 28.772 123.864 27.94V30.5H120.216V6.82H123.864V15.492ZM134.584 21.604C134.584 20.388 134.328 19.3427 133.816 18.468C133.326 17.572 132.664 16.9 131.832 16.452C131.022 15.9827 130.147 15.748 129.208 15.748C128.291 15.748 127.416 15.9827 126.584 16.452C125.774 16.9213 125.112 17.604 124.6 18.5C124.11 19.396 123.864 20.452 123.864 21.668C123.864 22.884 124.11 23.9507 124.6 24.868C125.112 25.764 125.774 26.4467 126.584 26.916C127.416 27.3853 128.291 27.62 129.208 27.62C130.147 27.62 131.022 27.3853 131.832 26.916C132.664 26.4253 133.326 25.7213 133.816 24.804C134.328 23.8867 134.584 22.82 134.584 21.604ZM139.728 21.604C139.728 19.8333 140.09 18.2653 140.816 16.9C141.562 15.5347 142.565 14.4787 143.824 13.732C145.104 12.964 146.512 12.58 148.048 12.58C149.434 12.58 150.64 12.8573 151.664 13.412C152.709 13.9453 153.541 14.6173 154.16 15.428V12.868H157.84V30.5H154.16V27.876C153.541 28.708 152.698 29.4013 151.632 29.956C150.565 30.5107 149.349 30.788 147.984 30.788C146.469 30.788 145.082 30.404 143.824 29.636C142.565 28.8467 141.562 27.7587 140.816 26.372C140.09 24.964 139.728 23.3747 139.728 21.604ZM154.16 21.668C154.16 20.452 153.904 19.396 153.392 18.5C152.901 17.604 152.25 16.9213 151.44 16.452C150.629 15.9827 149.754 15.748 148.816 15.748C147.877 15.748 147.002 15.9827 146.192 16.452C145.381 16.9 144.72 17.572 144.208 18.468C143.717 19.3427 143.472 20.388 143.472 21.604C143.472 22.82 143.717 23.8867 144.208 24.804C144.72 25.7213 145.381 26.4253 146.192 26.916C147.024 27.3853 147.898 27.62 148.816 27.62C149.754 27.62 150.629 27.3853 151.44 26.916C152.25 26.4467 152.901 25.764 153.392 24.868C153.904 23.9507 154.16 22.884 154.16 21.668ZM163.527 10.532C162.866 10.532 162.311 10.308 161.863 9.86C161.415 9.412 161.191 8.85733 161.191 8.196C161.191 7.53467 161.415 6.98 161.863 6.532C162.311 6.084 162.866 5.86 163.527 5.86C164.167 5.86 164.711 6.084 165.159 6.532C165.607 6.98 165.831 7.53467 165.831 8.196C165.831 8.85733 165.607 9.412 165.159 9.86C164.711 10.308 164.167 10.532 163.527 10.532ZM165.319 12.868V30.5H161.671V12.868H165.319ZM190.493 12.58C191.879 12.58 193.117 12.868 194.205 13.444C195.314 14.02 196.178 14.8733 196.797 16.004C197.437 17.1347 197.757 18.5 197.757 20.1V30.5H194.141V20.644C194.141 19.0653 193.746 17.86 192.957 17.028C192.167 16.1747 191.09 15.748 189.725 15.748C188.359 15.748 187.271 16.1747 186.461 17.028C185.671 17.86 185.277 19.0653 185.277 20.644V30.5H181.661V20.644C181.661 19.0653 181.266 17.86 180.477 17.028C179.687 16.1747 178.61 15.748 177.245 15.748C175.879 15.748 174.791 16.1747 173.981 17.028C173.191 17.86 172.797 19.0653 172.797 20.644V30.5H169.149V12.868H172.797V14.884C173.394 14.1587 174.151 13.5933 175.069 13.188C175.986 12.7827 176.967 12.58 178.013 12.58C179.421 12.58 180.679 12.8787 181.789 13.476C182.898 14.0733 183.751 14.9373 184.349 16.068C184.882 15.0013 185.714 14.1587 186.845 13.54C187.975 12.9 189.191 12.58 190.493 12.58ZM203.295 10.532C202.633 10.532 202.079 10.308 201.631 9.86C201.183 9.412 200.959 8.85733 200.959 8.196C200.959 7.53467 201.183 6.98 201.631 6.532C202.079 6.084 202.633 5.86 203.295 5.86C203.935 5.86 204.479 6.084 204.927 6.532C205.375 6.98 205.599 7.53467 205.599 8.196C205.599 8.85733 205.375 9.412 204.927 9.86C204.479 10.308 203.935 10.532 203.295 10.532ZM205.087 12.868V30.5H201.439V12.868H205.087Z" fill="#002603"/>
</svg>
